<?xml version="1.0" encoding="UTF-8"?>
<svg width="75px" height="111px" viewBox="0 0 75 111" version="1.1" xmlns="http://www.w3.org/2000/svg" xmlns:xlink="http://www.w3.org/1999/xlink">
    <title>A3C9E2E1-4426-49FA-AB58-ECB78914502E</title>
    <defs>
        <path d="M12,0 L55,0 C61.627417,6.44524884e-15 67,5.372583 67,12 L67,90.9919857 C67,97.6194027 61.627417,102.991986 55,102.991986 L12,102.991986 C5.372583,102.991986 4.31204712e-15,97.6194027 0,90.9919857 L0,12 C-2.58798134e-15,5.372583 5.372583,2.99379359e-15 12,0 Z" id="path-1"></path>
        <filter x="-10.4%" y="-4.9%" width="120.9%" height="113.6%" filterUnits="objectBoundingBox" id="filter-2">
            <feOffset dx="0" dy="2" in="SourceAlpha" result="shadowOffsetOuter1"></feOffset>
            <feGaussianBlur stdDeviation="2" in="shadowOffsetOuter1" result="shadowBlurOuter1"></feGaussianBlur>
            <feComposite in="shadowBlurOuter1" in2="SourceAlpha" operator="out" result="shadowBlurOuter1"></feComposite>
            <feColorMatrix values="0 0 0 0 0   0 0 0 0 0   0 0 0 0 0  0 0 0 0.15 0" type="matrix" in="shadowBlurOuter1"></feColorMatrix>
        </filter>
    </defs>
    <g id="FINAL" stroke="none" stroke-width="1" fill="none" fill-rule="evenodd">
        <g id="Happy-Hunny-Landing-Phase1-Start_mobile" transform="translate(-284.000000, -335.000000)">
            <g id="Game" transform="translate(4.000000, 226.000000)">
                <g id="card-10-mobile" transform="translate(284.000000, 110.991986)">
                    <g id="Rectangle-Copy-9">
                        <use fill="black" fill-opacity="1" filter="url(#filter-2)" xlink:href="#path-1"></use>
                        <path stroke="#FFFFFF" stroke-width="3" d="M55,1.5 C57.8994949,1.5 60.5244949,2.67525253 62.4246212,4.5753788 C64.3247475,6.47550506 65.5,9.10050506 65.5,12 L65.5,12 L65.5,90.9919857 C65.5,93.8914806 64.3247475,96.5164806 62.4246212,98.4166069 C60.5244949,100.316733 57.8994949,101.491986 55,101.491986 L55,101.491986 L12,101.491986 C9.10050506,101.491986 6.47550506,100.316733 4.5753788,98.4166069 C2.67525253,96.5164806 1.5,93.8914806 1.5,90.9919857 L1.5,90.9919857 L1.5,12 C1.5,9.10050506 2.67525253,6.47550506 4.5753788,4.5753788 C6.47550506,2.67525253 9.10050506,1.5 12,1.5 L12,1.5 Z" stroke-linejoin="square" fill="#FFD343" fill-rule="evenodd"></path>
                    </g>
                    <path d="M46.454701,14.2322648 C48.2126599,14.2322648 49.804193,14.9448184 50.9562363,16.0968618 C52.1082797,17.2489051 52.8208333,18.8404382 52.8208333,20.5983971 L52.8208333,20.5983971 L52.8208333,81.8723421 C52.8208333,83.6105987 52.1235848,85.1881337 50.9918268,86.3380034 C49.8600689,87.487873 48.2938016,88.2100772 46.5557641,88.2376723 L46.5557641,88.2376723 L20.6931634,88.6482959 C18.935426,88.6762037 17.3327816,87.9890056 16.1625946,86.8553962 C14.9936346,85.7229755 14.2562255,84.1450792 14.2268603,82.3895575 L14.2268603,82.3895575 L14.6385437,20.5558331 C14.6502419,18.8062187 15.3669127,17.2253266 16.5180723,16.0818382 C17.6692319,14.9383497 19.2548803,14.2322648 21.0045338,14.2322648 L21.0045338,14.2322648 Z" id="Rectangle-Copy-4" stroke="#FFFFFF" opacity="0.400000006"></path>
                </g>
            </g>
        </g>
    </g>
</svg>