<?xml version="1.0" encoding="UTF-8"?>
<svg width="75px" height="111px" viewBox="0 0 75 111" version="1.1" xmlns="http://www.w3.org/2000/svg" xmlns:xlink="http://www.w3.org/1999/xlink">
    <title>14C47105-A32D-4B07-B2F6-FD9F85883A51</title>
    <defs>
        <path d="M12,0 L55,0 C61.627417,6.44524884e-15 67,5.372583 67,12 L67,90.9919857 C67,97.6194027 61.627417,102.991986 55,102.991986 L12,102.991986 C5.372583,102.991986 4.31204712e-15,97.6194027 0,90.9919857 L0,12 C-2.58798134e-15,5.372583 5.372583,2.99379359e-15 12,0 Z" id="path-1"></path>
        <filter x="-10.4%" y="-4.9%" width="120.9%" height="113.6%" filterUnits="objectBoundingBox" id="filter-2">
            <feOffset dx="0" dy="2" in="SourceAlpha" result="shadowOffsetOuter1"></feOffset>
            <feGaussianBlur stdDeviation="2" in="shadowOffsetOuter1" result="shadowBlurOuter1"></feGaussianBlur>
            <feComposite in="shadowBlurOuter1" in2="SourceAlpha" operator="out" result="shadowBlurOuter1"></feComposite>
            <feColorMatrix values="0 0 0 0 0   0 0 0 0 0   0 0 0 0 0  0 0 0 0.15 0" type="matrix" in="shadowBlurOuter1"></feColorMatrix>
        </filter>
        <path d="M10.2991986,0 L56.7008014,0 C62.3888917,2.23079698e-15 67,4.61110826 67,10.2991986 L67,92.6927871 C67,98.3808774 62.3888917,102.991986 56.7008014,102.991986 L10.2991986,102.991986 C4.61110826,102.991986 -2.85612352e-15,98.3808774 0,92.6927871 L0,10.2991986 C-2.472947e-15,4.61110826 4.61110826,-2.50782844e-15 10.2991986,0 Z" id="path-3"></path>
    </defs>
    <g id="FINAL" stroke="none" stroke-width="1" fill="none" fill-rule="evenodd">
        <g id="Happy-Hunny-Landing-Phase1-Start_mobile" transform="translate(-142.000000, -224.000000)">
            <g id="Game" transform="translate(4.000000, 226.000000)">
                <g id="card-3-mobile" transform="translate(142.000000, 0.000000)">
                    <g id="Rectangle-Copy-20">
                        <use fill="black" fill-opacity="1" filter="url(#filter-2)" xlink:href="#path-1"></use>
                        <path stroke="#FFFFFF" stroke-width="3" d="M55,1.5 C57.8994949,1.5 60.5244949,2.67525253 62.4246212,4.5753788 C64.3247475,6.47550506 65.5,9.10050506 65.5,12 L65.5,12 L65.5,90.9919857 C65.5,93.8914806 64.3247475,96.5164806 62.4246212,98.4166069 C60.5244949,100.316733 57.8994949,101.491986 55,101.491986 L55,101.491986 L12,101.491986 C9.10050506,101.491986 6.47550506,100.316733 4.5753788,98.4166069 C2.67525253,96.5164806 1.5,93.8914806 1.5,90.9919857 L1.5,90.9919857 L1.5,12 C1.5,9.10050506 2.67525253,6.47550506 4.5753788,4.5753788 C6.47550506,2.67525253 9.10050506,1.5 12,1.5 L12,1.5 Z" stroke-linejoin="square" fill="#FFD343" fill-rule="evenodd"></path>
                    </g>
                    <g id="card-dotted-line">
                        <mask id="mask-4" fill="white">
                            <use xlink:href="#path-3"></use>
                        </mask>
                        <g id="Mask"></g>
                        <path d="M160.275802,5.17996916 C149.281557,15.3938383 132.439324,28.9516099 121.471179,35.1540404 C105.764277,44.0362139 103.640156,48.0928102 70.4140127,56.6938382 C54.1234479,60.910867 31.7354234,64.1691203 22.4248272,45.7055486 C18.2078209,37.3429264 26.0552383,29.0711825 34.5432805,33.7717462 C43.3567883,38.6525483 39.3691342,53.9135846 31.0664428,56.6938382 C26.1870088,58.3277739 23.2162594,58.8188111 18.3163534,59.0001152 C0.640184587,59.6541611 -17.3341991,57.8378002 -34.7206856,60.7132434 C-90.0730812,69.8676325 -98.1699841,108.522991 -99.4433053,115.029378 C-103.890154,137.751781 -99.4433053,169.818257 -70.4140127,181.070171 C-34.9927624,194.799643 -14.881825,168.340631 16.9080002,153.165219 C50.0954086,137.322648 52.975958,153.65633 50.775938,163.585373 C50.0954086,166.656712 39.8544677,181.798629 51.0254147,185.597836 C68.9932768,191.708655 80.8596295,175.871662 98.6827113,172.827245 C104.796287,171.782966 134.126275,166.781583 126.607643,197.401306 C121.595222,217.814454 102.123726,225.378404 68.1931541,220.093155" id="Path-7" stroke="#D6A12B" opacity="0.400000006" stroke-linecap="round" stroke-linejoin="round" stroke-dasharray="3.43306619038552,3.43306619038552" mask="url(#mask-4)"></path>
                    </g>
                    <path d="M46.454701,14.2322648 C48.2126599,14.2322648 49.804193,14.9448184 50.9562363,16.0968618 C52.1082797,17.2489051 52.8208333,18.8404382 52.8208333,20.5983971 L52.8208333,20.5983971 L52.8208333,81.8723421 C52.8208333,83.6105987 52.1235848,85.1881337 50.9918268,86.3380034 C49.8600689,87.487873 48.2938016,88.2100772 46.5557641,88.2376723 L46.5557641,88.2376723 L20.6931634,88.6482959 C18.935426,88.6762037 17.3327816,87.9890056 16.1625946,86.8553962 C14.9936346,85.7229755 14.2562255,84.1450792 14.2268603,82.3895575 L14.2268603,82.3895575 L14.6385437,20.5558331 C14.6502419,18.8062187 15.3669127,17.2253266 16.5180723,16.0818382 C17.6692319,14.9383497 19.2548803,14.2322648 21.0045338,14.2322648 L21.0045338,14.2322648 Z" id="Rectangle-Copy-6" stroke="#FFFFFF" opacity="0.400000006"></path>
                </g>
            </g>
        </g>
    </g>
</svg>