<?xml version="1.0" encoding="UTF-8"?>
<svg width="59px" height="89px" viewBox="0 0 59 89" version="1.1" xmlns="http://www.w3.org/2000/svg" xmlns:xlink="http://www.w3.org/1999/xlink">
    <title>55C10D95-7D50-4484-952D-9AD63BAFA50D</title>
    <g id="FINAL" stroke="none" stroke-width="1" fill="none" fill-rule="evenodd">
        <g id="Happy-Hunny-Landing-Phase1-Thank-You_mobile" transform="translate(-213.000000, -216.000000)">
            <g id="Game-|-Complete-|-Condensed" transform="translate(24.000000, 120.000000)">
                <g id="card-9-complete-mobile" transform="translate(189.000000, 96.888889)">
                    <rect id="Rectangle-Copy-8" stroke="#FFFFFF" stroke-width="2" x="1" y="1" width="57" height="86.0597015" rx="12"></rect>
                    <path d="M24.9749065,26.9177011 C25.4034414,26.4177437 25.7469495,25.9688024 26.1414737,25.5572728 C27.0904432,24.5761995 28.1521546,23.7108477 29.3044694,22.9792614 C31.4437427,21.5576139 34.3380538,22.8840314 36.0317869,25.4280322 C37.2561723,27.2612092 38.8240658,34.9306233 40.2661198,39.1921647 C40.9191253,41.1239728 40.0654566,42.6544545 38.3139053,43.205428 C36.6745892,43.7189896 35.3379685,43.2258344 34.684963,41.6273312 C33.6646418,39.0969347 32.3620318,29.0977873 30.4778387,29.4276911 C28.0970893,29.8494239 26.2571101,36.9100464 25.1279547,39.7635446 C24.643661,41.1869265 23.4435634,42.2486509 21.9717612,42.5558235 C20.5024987,42.8959305 19.454969,42.2157164 19.2679101,40.7192454 C19.1998887,40.1920794 19.165878,39.6581114 19.1420705,39.1275444 C18.9380063,34.7197569 18.7373431,30.3119695 18.540081,25.904182 C18.5066057,25.3378312 18.5066057,24.7699976 18.540081,24.2036468 C18.635311,22.9316464 19.3835465,22.1936141 20.5807234,21.9453359 C21.7779002,21.6970578 22.8458364,22.0031541 23.4172162,23.1221063 C23.9885961,24.2410585 24.417131,25.5266632 24.9749065,26.9177011 Z" id="Path" fill="#000000" fill-rule="nonzero"></path>
                </g>
            </g>
        </g>
    </g>
</svg>