<?xml version="1.0" encoding="UTF-8"?>
<svg width="59px" height="89px" viewBox="0 0 59 89" version="1.1" xmlns="http://www.w3.org/2000/svg" xmlns:xlink="http://www.w3.org/1999/xlink">
    <title>B5EE4B28-47B9-4AE0-B12D-D964818D7CAC</title>
    <g id="FINAL" stroke="none" stroke-width="1" fill="none" fill-rule="evenodd">
        <g id="Happy-Hunny-Landing-Phase1-Thank-You_mobile" transform="translate(-276.000000, -120.000000)">
            <g id="Game-|-Complete-|-Condensed" transform="translate(24.000000, 120.000000)">
                <g id="card-5-complete-mobile" transform="translate(252.000000, 0.000000)">
                    <rect id="Rectangle-Copy-4" stroke="#FFFFFF" stroke-width="2" x="1" y="1" width="57" height="86.0597015" rx="12"></rect>
                    <path d="M38.1541904,58.1162875 C37.9467251,59.5821489 37.7834737,60.9153686 37.5658052,62.238385 C36.5046712,68.6051891 33.9538683,74.2067523 28.9781021,78.4852991 C27.8221083,79.4561265 26.5130641,80.2284511 25.1042827,80.7708185 C22.0127096,81.9815996 19.2578424,80.9578774 17.4586761,78.1587963 C14.3773062,73.3632868 14.6017768,65.9149423 18.1388902,60.9663846 C21.4821426,56.2831105 25.8695236,53.0282859 31.5629157,51.6746599 C31.9710442,51.5794299 32.5832369,51.1066811 32.5832369,50.7903815 C32.7022743,47.8994715 32.7158786,45.0085616 32.7430872,42.1108495 C32.704126,41.8370813 32.6368786,41.5680916 32.542424,41.3081968 C31.8928195,41.7843467 31.3486483,42.1992773 30.7908727,42.5938015 C27.2299518,45.1207969 23.4343571,44.4473849 21.0400034,40.7810309 C18.8293075,37.3799603 17.7885799,33.5707613 17.1899915,29.6153162 C16.995361,28.3625087 16.8885338,27.0976293 16.8702909,25.8299247 C16.8498845,24.1293894 17.7511682,23.0614533 19.2136285,22.8845976 C20.7080111,22.7475943 22.0650603,23.7598797 22.3596188,25.2313363 C22.7371376,26.8230373 22.9071911,28.4657544 23.335726,30.04045 C23.9241112,32.206932 24.5771168,34.3666118 25.3763684,36.4616713 C26.1212028,38.4206879 27.719706,38.6893725 29.0257171,37.0568586 C29.7891054,36.1047614 30.3409819,35.0010084 30.6446266,33.8190394 C31.2058033,31.4791029 31.4778889,29.0575407 31.9234292,26.6971977 C32.090049,25.7329935 32.3474068,24.786691 32.6920711,23.8709081 C33.3722852,22.1703728 34.6204781,21.4323405 36.0931417,21.7384368 C37.5658052,22.0445332 38.2800301,22.9662233 38.3072386,24.9320421 C38.4194739,33.1150178 38.5487146,41.2979936 38.569121,49.4809694 C38.569121,50.8992158 38.8310035,51.8107027 40.2186403,52.4399007 C41.196876,52.9495889 42.0776216,53.6277055 42.8204592,54.4431313 C43.8407804,55.4634525 43.9360104,56.8000732 43.2728016,57.8169933 C42.5619779,58.9087369 41.7355177,59.1196033 40.1472178,58.6502556 C39.5452283,58.4631967 38.9194313,58.3169507 38.1541904,58.1162875 Z M32.1989159,57.7931858 C32.0069616,57.7474311 31.811079,57.7200987 31.6139318,57.7115601 C31.3289634,57.7266518 31.0463122,57.771101 30.7704663,57.8442019 C25.5362187,59.4120954 22.0977363,62.8471766 20.7645167,68.1120339 C20.3699925,69.6799274 20.6318749,71.540313 21.0298002,73.1558215 C21.6045811,75.4855548 23.3935442,76.0093197 25.3525609,74.6318861 C26.029678,74.1697628 26.6221817,73.5945164 27.1041122,72.9313508 C28.1243737,71.5541991 29.0341603,70.0985405 29.8249686,68.5779805 C31.4778889,65.2109207 32.154702,61.5853795 32.1989159,57.7931858 L32.1989159,57.7931858 Z" id="Shape" fill="#000000" fill-rule="nonzero"></path>
                </g>
            </g>
        </g>
    </g>
</svg>