<?xml version="1.0" encoding="UTF-8"?>
<svg width="59px" height="89px" viewBox="0 0 59 89" version="1.1" xmlns="http://www.w3.org/2000/svg" xmlns:xlink="http://www.w3.org/1999/xlink">
    <title>0ADFAA53-139C-468F-A5D1-04D9EEBD5EAB</title>
    <g id="FINAL" stroke="none" stroke-width="1" fill="none" fill-rule="evenodd">
        <g id="Happy-Hunny-Landing-Phase1-Thank-You_mobile" transform="translate(-213.000000, -120.000000)">
            <g id="Game-|-Complete-|-Condensed" transform="translate(24.000000, 120.000000)">
                <g id="card-4-complete-mobile" transform="translate(189.000000, 0.000000)">
                    <rect id="Rectangle-Copy-3" stroke="#FFFFFF" stroke-width="2" x="1" y="1" width="57" height="86.0597015" rx="12"></rect>
                    <path d="M20.3821178,31.2546322 C20.4433371,29.554097 20.3821178,23.3029293 24.6606646,23.915122 C25.1334134,23.9831434 25.88505,25.1395074 25.88505,25.1395074 C27.7216281,23.3029293 29.3677463,22.9832286 31.0070623,22.8199773 C34.4319403,22.4798702 35.9522189,23.6430363 37.2038128,26.1972403 C39.5845622,31.0335626 39.7886264,38.3390622 33.2279613,42.5767961 C31.4542046,43.667751 29.5917816,44.6074953 27.6604088,45.3860804 C26.6706973,45.8078132 26.2761731,46.3723909 26.2999806,47.3859099 C26.2999806,49.8822957 26.2999806,52.3786815 26.2999806,54.8682651 C26.2999806,59.2454429 26.3373924,63.6260218 26.3407935,68.0066007 C26.3407935,69.17997 26.0687078,70.2138955 24.7490924,70.5982164 C23.8802828,70.9315908 22.8956696,70.6550141 22.3275302,69.9180023 C21.0249202,68.3501088 20.6269949,66.5169318 20.6269949,64.5341076 C20.5589735,57.0857631 20.4886847,49.6374186 20.4161285,42.1890741 C20.3753157,41.0497154 20.1440429,37.4105699 20.3821178,31.2546322 Z M26.2659699,39.0736934 C30.4050728,38.6349553 33.8095444,34.8903767 33.6326887,31.2512312 C33.5408598,29.3806424 32.0477899,28.3875298 30.3030407,29.0915514 C28.6025054,29.7717655 27.4155318,31.050568 26.4428256,32.5538412 C26.3346706,32.7237818 26.2758015,32.9204046 26.272772,33.12182 C26.2659699,35.0944409 26.2659699,37.02965 26.2659699,39.0736934 Z" id="Shape" fill="#000000" fill-rule="nonzero"></path>
                </g>
            </g>
        </g>
    </g>
</svg>