<?xml version="1.0" encoding="UTF-8"?>
<svg width="59px" height="89px" viewBox="0 0 59 89" version="1.1" xmlns="http://www.w3.org/2000/svg" xmlns:xlink="http://www.w3.org/1999/xlink">
    <title>8F6C0584-16A5-4A92-AD58-F7A6DDEBBAC5</title>
    <g id="FINAL" stroke="none" stroke-width="1" fill="none" fill-rule="evenodd">
        <g id="Happy-Hunny-Landing-Phase1-Thank-You_mobile" transform="translate(-24.000000, -216.000000)">
            <g id="Game-|-Complete-|-Condensed" transform="translate(24.000000, 120.000000)">
                <g id="card-6-complete-mobile" transform="translate(0.000000, 96.888889)">
                    <rect id="Rectangle-Copy-5" stroke="#FFFFFF" stroke-width="2" x="1" y="1" width="57" height="86.0597015" rx="12"></rect>
                    <path d="M23.1899087,27.9312201 C24.070786,27.3088242 24.7986151,26.7340432 25.5706581,26.2510912 C29.1213758,24.0505986 32.4850346,24.7104063 34.5970994,28.3291453 C35.7126505,30.240547 36.9370359,37.3521855 37.6580629,39.4710525 C38.433507,41.7531708 39.0525018,44.0488935 40.746235,45.9330865 C42.0794546,47.4193544 40.6646093,50.0143712 38.4505123,50.4293018 C36.7057631,50.7456014 35.1004578,49.8069059 34.3420191,47.8580925 C33.2740829,45.1134285 31.6993873,37.4406134 30.6926704,34.675543 C30.4545955,34.0225375 30.2607344,33.3491255 29.9716434,32.7199274 C29.4036647,31.5023442 28.1758782,31.3322906 27.3426159,32.3798204 C26.9789703,32.8724357 26.7017954,33.4233351 26.5229579,34.0089332 C25.5978667,36.8046132 24.7237916,39.6138974 23.8021014,42.4129785 C23.6231215,43.040712 23.3957008,43.6536107 23.1218873,44.2461555 C22.7176007,45.1806699 21.7539797,45.7450765 20.7411379,45.6405945 C19.7099543,45.6051953 18.843802,44.8538684 18.6630838,43.8380271 C18.4137204,42.6809719 18.2669054,41.5041758 18.2243457,40.3213201 C18.0361532,30.6668145 17.8740355,21.0134426 17.7379926,11.3612043 C17.7265179,10.7901279 17.7801472,10.2196035 17.897843,9.66066905 C18.1647597,8.44178858 19.2937947,7.60956178 20.5370737,7.71525669 C21.7359847,7.77537501 22.7026011,8.71866429 22.7919835,9.91574934 C22.911021,11.2761776 22.9212242,12.6127983 22.9382295,13.9596222 C22.9926467,18.2551743 23.0266574,22.5507265 23.0742723,26.8428775 C23.0674702,27.1523749 23.1320905,27.4618723 23.1899087,27.9312201 Z" id="Path" fill="#000000" fill-rule="nonzero"></path>
                </g>
            </g>
        </g>
    </g>
</svg>